<svg version="1.1" width="661.333" height="661.333" viewBox="0 0 496 496" xmlns="http://www.w3.org/2000/svg" xmlns:xlink="http://www.w3.org/1999/xlink" overflow="hidden"><linearGradient x1="248" y1="496" x2="248" y2="0" gradientUnits="userSpaceOnUse" id="a"><stop offset="0" stop-color="#9F2FFF"/><stop offset="1" stop-color="#0BB1D3"/></linearGradient><path d=" M 0 336 L 147.953 336 L 88 478.383 L 88 496 L 149.414 496 L 213.414 336 L 216 336 L 216 464 L 280 464 L 280 336 L 282.586 336 L 346.586 496 L 408 496 L 408 478.383 L 348.047 336 L 496 336 L 496 0 L 0 0 Z M 138.586 480 L 104.68 480 L 165.313 336 L 196.184 336 Z M 264 448 L 232 448 L 232 336 L 264 336 Z M 391.32 480 L 357.414 480 L 299.816 336 L 330.688 336 Z M 16 320 L 16 288 L 480 288 L 480 320 Z M 480 16 L 480 272 L 16 272 L 16 16 Z M 288 168 C 288 216.52 327.48 256 376 256 C 424.52 256 464 216.52 464 168 C 464 119.48 424.52 80 376 80 C 327.48 80 288 119.48 288 168 Z M 304.473 176 L 368 176 L 368 239.527 C 334.688 235.824 308.176 209.32 304.473 176 Z M 448 168 C 448 205 419.945 235.535 384 239.527 L 384 96.4727 C 419.945 100.465 448 131 448 168 Z M 368 96.4727 L 368 160 L 304.473 160 C 308.176 126.68 334.688 100.176 368 96.4727 Z M 48 117.449 L 48 192 L 176 192 L 176 117.449 L 187 126.246 L 196.992 113.754 L 112 45.7617 L 27 113.754 L 36.9922 126.246 Z M 128 176 L 96 176 L 96 144 L 128 144 Z M 160 104.648 L 160 176 L 144 176 L 144 128 L 80 128 L 80 176 L 64 176 L 64 104.648 L 112 66.2461 Z M 32 240 L 48 240 L 48 256 L 32 256 Z M 64 240 L 192 240 L 192 256 L 64 256 Z M 32 208 L 192 208 L 192 224 L 32 224 Z M 224 104 L 208 104 L 208 32 L 320 32 L 320 80 L 304 80 L 304 48 L 288 48 L 288 104 L 272 104 L 272 48 L 256 48 L 256 120 L 240 120 L 240 48 L 224 48 Z" fill="url(#a)"/></svg>